<svg width="239" height="40" viewBox="0 0 239 40" fill="none" xmlns="http://www.w3.org/2000/svg">
<path d="M15.6205 9.21531C18.1044 9.21531 20.1179 7.24213 20.1179 4.8081C20.1179 2.37407 18.1044 0.400908 15.6205 0.400908C13.1367 0.400908 11.1232 2.37407 11.1232 4.8081C11.1232 7.24213 13.1367 9.21531 15.6205 9.21531Z" fill="#0355D0"/>
<path d="M26.5367 16.7399C22.5081 12.1503 20.118 11.1518 14.6516 11.1518C7.03475 11.1518 0.798745 16.0922 0.0842933 23.6162C-0.631176 31.1508 3.14626 40 13.7808 40.0001C24.2065 40.0001 26.353 34.8068 26.353 34.8068C26.353 34.8068 28.0739 31.7835 25.6375 30.65C22.7244 29.2949 21.6103 32.3788 21.6103 32.3788C19.7246 36.3175 13.8082 36.0112 13.8082 36.0112C13.8082 36.0112 3.70462 36.0929 3.89174 24.5928C3.93295 22.0594 4.65525 20.1589 5.69954 18.733C8.66936 14.6779 13.9577 14.4661 14.7007 14.4512C15.6206 14.4541 19.1385 14.1379 22.4317 16.4268C26.2507 19.0811 27.0367 22.0068 33.0363 25.3957C34.4113 26.0176 35.9111 26.3294 37.4253 26.3082C38.9395 26.287 40.4296 25.9333 41.7858 25.2732C41.7858 25.2732 36.6611 25.9265 32.4947 22.7826C30.6687 21.4048 28.7735 19.2882 26.5367 16.7399Z" fill="#0355D0"/>
<path d="M44.0357 8.8144C46.5195 8.8144 48.5331 6.84123 48.5331 4.4072C48.5331 1.97317 46.5195 0 44.0357 0C41.5519 0 39.5384 1.97317 39.5384 4.4072C39.5384 6.84123 41.5519 8.8144 44.0357 8.8144Z" fill="#0355D0"/>
<path d="M33.1196 34.412C37.1482 39.0016 39.5383 40.0001 45.0047 40.0001C52.6215 40.0001 58.8575 35.0597 59.572 27.5357C60.2875 20.0011 56.51 11.1519 45.8755 11.1518C35.4498 11.1518 33.3033 16.3451 33.3033 16.3451C33.3033 16.3451 31.5824 19.3685 34.0188 20.5019C36.9319 21.8571 38.046 18.7731 38.046 18.7731C39.9317 14.8345 45.8481 15.1407 45.8481 15.1407C45.8481 15.1407 55.9517 15.059 55.7646 26.5591C55.7233 29.0925 55.001 30.993 53.9568 32.4189C50.9869 36.474 45.6986 36.6858 44.9556 36.7007C44.0357 36.6978 40.5178 37.014 37.2246 34.7251C33.4056 32.0708 32.6196 29.1451 26.62 25.7562C25.245 25.1343 23.7452 24.8225 22.231 24.8437C20.7168 24.8649 19.2267 25.2186 17.8704 25.8787C17.8704 25.8787 22.9952 25.2255 27.1616 28.3693C28.9875 29.7471 30.8827 31.8637 33.1196 34.412Z" fill="#0355D0"/>
<path d="M78.1575 8.14204C78.3019 8.13734 78.4437 8.10348 78.5746 8.04251C78.7055 7.98154 78.8227 7.89473 78.9192 7.78727C79.0157 7.67982 79.0894 7.55396 79.1359 7.41727C79.1825 7.28058 79.2009 7.13588 79.19 6.99189C79.1958 6.83884 79.1605 6.68702 79.0878 6.5522C79.0152 6.41737 78.9077 6.30445 78.7767 6.22512C77.5085 6.93287 75.001 5.63501 72.5531 5.63501C69.0721 5.63501 67.6562 7.75866 67.6562 9.61706C67.6562 11.092 68.5411 12.4193 70.0455 12.4193C70.4851 12.4172 70.9185 12.3165 71.3138 12.1245C70.9281 11.6381 70.72 11.0346 70.7238 10.4138C70.7238 9.02735 71.6972 7.52287 74.3818 7.52287H74.529L69.7799 28.4957C70.2515 28.7758 70.7957 28.9094 71.3434 28.8795C72.4349 28.8795 73.5851 28.378 73.8804 26.9916L77.8919 8.14205L78.1575 8.14204Z" fill="#231F20"/>
<path d="M124.941 12.0061C125.507 11.9889 126.048 11.7722 126.469 11.3943C126.89 11.0165 127.164 10.5019 127.242 9.94157C127.274 9.67781 127.248 9.41027 127.167 9.15728C127.086 8.90428 126.951 8.67179 126.772 8.4757C126.593 8.27961 126.373 8.12457 126.128 8.02116C125.884 7.91775 125.62 7.86842 125.354 7.87655C124.792 7.8864 124.254 8.10212 123.84 8.48277C123.427 8.86342 123.168 9.38252 123.112 9.94157C123.069 10.2023 123.084 10.4696 123.157 10.7237C123.23 10.9779 123.358 11.2125 123.534 11.4104C123.709 11.6084 123.926 11.7646 124.17 11.8676C124.413 11.9707 124.677 12.018 124.941 12.0061Z" fill="#231F20"/>
<path d="M147.92 14.1305C147.504 13.8724 147.023 13.7393 146.533 13.747C145.471 13.747 144.35 14.2481 144.056 15.6054L142.138 24.4251C141.551 25.0658 140.735 25.4476 139.867 25.4871C138.893 25.4871 138.657 24.7789 138.864 23.8646L140.693 15.3692C140.929 14.2481 140.339 13.747 139.277 13.747C138.038 13.747 136.976 14.3662 135.973 15.1629C135.857 15.264 135.764 15.3886 135.701 15.5285C135.637 15.6684 135.604 15.8203 135.604 15.974C135.604 16.1277 135.637 16.2796 135.701 16.4195C135.764 16.5594 135.857 16.6841 135.973 16.7851C136.239 16.5493 136.416 16.4312 136.563 16.4312C136.828 16.4312 136.976 16.6965 136.858 17.1685L135.472 23.2159C135.355 23.7631 135.276 24.3177 135.236 24.8758C134.485 25.5097 133.417 26.0767 132.463 26.0767C131.696 26.0767 131.224 25.5462 131.578 23.8941L133.318 15.6054H134.616C135.531 15.6054 136.003 14.8381 135.855 13.8942H133.702L134.528 10.0008C134.112 9.74273 133.631 9.60953 133.141 9.61707C132.08 9.61707 130.959 10.1185 130.664 11.4754L130.133 13.8942H129.543C128.628 13.8942 128.156 14.6615 128.304 15.6054H129.779L127.891 24.5137C127.864 24.6437 127.858 24.7491 127.837 24.8724C127.085 25.5076 126.015 26.0767 125.059 26.0767C124.293 26.0767 123.821 25.5462 124.174 23.8941L125.974 15.3692C126.21 14.2481 125.62 13.747 124.558 13.747C123.319 13.747 122.257 14.3662 121.254 15.1629C121.138 15.264 121.045 15.3886 120.982 15.5285C120.918 15.6684 120.885 15.8203 120.885 15.974C120.885 16.1277 120.918 16.2796 120.982 16.4195C121.045 16.5594 121.138 16.6841 121.254 16.7851C121.52 16.5493 121.696 16.4312 121.844 16.4312C122.109 16.4312 122.228 16.6966 122.139 17.1685L120.534 24.8614C119.782 25.5011 118.705 26.0767 117.744 26.0767C117.154 26.0767 116.771 25.7229 116.947 24.8676L118.393 18.0829C119.071 14.9858 117.95 13.747 116.387 13.747C114.676 13.747 112.788 14.9267 111.549 16.6965L111.844 15.3692C112.11 14.2481 111.49 13.747 110.428 13.747C109.19 13.747 108.128 14.3661 107.125 15.1629C107.009 15.2639 106.916 15.3886 106.852 15.5285C106.789 15.6684 106.756 15.8203 106.756 15.974C106.756 16.1277 106.789 16.2796 106.852 16.4195C106.916 16.5594 107.009 16.684 107.125 16.7851C107.39 16.5493 107.567 16.4312 107.715 16.4312C107.98 16.4312 108.128 16.6965 108.009 17.1685L106.358 24.9005C105.608 25.5241 104.555 26.0767 103.615 26.0767C102.847 26.0767 102.375 25.5462 102.73 23.894L104.499 15.5168C104.735 14.3957 104.146 13.8942 103.084 13.8942H97.5672L97.7738 13.0094C98.3934 10.148 99.2783 8.70257 100.842 8.70257C101.303 8.71351 101.761 8.79311 102.199 8.93875C102.117 9.84258 101.928 10.7336 101.638 11.5935C102.173 11.9729 102.811 12.1789 103.467 12.1835C104.735 12.1835 105.562 11.3872 105.562 9.88267C105.562 7.96535 103.615 6.72613 101.255 6.72613C98.0101 6.72613 95.2663 8.5259 94.352 12.8326L94.1162 13.8942H93.5261C92.6117 13.8942 92.1397 14.6614 92.2874 15.6054H93.7624L91.7594 24.923C91.0104 25.5372 89.9718 26.0767 89.0422 26.0767C88.4522 26.0767 88.0688 25.7229 88.2455 24.8675L89.691 18.0829C90.3695 14.9858 89.2485 13.747 87.685 13.747C85.9743 13.747 84.0864 14.9267 82.8476 16.6965L83.1425 15.3692C83.4082 14.2481 82.7886 13.747 81.7266 13.747C80.4878 13.747 79.4258 14.3661 78.4228 15.1629C78.307 15.2639 78.2142 15.3886 78.1506 15.5285C78.087 15.6684 78.0541 15.8203 78.0541 15.974C78.0541 16.1277 78.087 16.2796 78.1506 16.4195C78.2142 16.5594 78.307 16.684 78.4228 16.7851C78.6885 16.5493 78.8652 16.4312 79.0128 16.4312C79.2782 16.4312 79.4258 16.6965 79.3077 17.1685L76.8888 28.4957C77.3046 28.7537 77.7859 28.8869 78.2752 28.8794C79.3372 28.8794 80.4583 28.378 80.7531 27.0206L82.5524 18.6138C83.2015 17.8176 84.3816 17.0799 85.1779 17.0799C85.8267 17.0799 86.24 17.5813 85.9743 18.8206L84.7355 24.6904C83.9978 28.1417 85.5613 28.8794 87.0363 28.8794C88.551 28.8794 90.063 28.0801 91.312 27.0041L90.9597 28.6433C89.6618 34.6607 88.8065 37.3748 86.8006 37.3748C86.3182 37.4159 85.8384 37.2706 85.4599 36.9688C85.0814 36.667 84.8329 36.2317 84.7655 35.7523C84.1754 35.7523 83.792 36.0471 83.792 36.5485C83.792 39.0265 85.267 40 87.0367 40C91.1663 40 92.7003 36.6077 94.411 28.6433L97.2132 15.6054H100.252C100.724 15.6054 100.989 15.8412 100.871 16.3426L98.9835 25.3691C98.4229 28.0532 100.134 28.8795 101.609 28.8795C103.136 28.8795 104.66 28.0658 105.915 26.9761L105.591 28.4957C106.006 28.7537 106.488 28.8869 106.977 28.8795C108.039 28.8795 109.16 28.378 109.455 27.0207L111.254 18.6139C111.903 17.8176 113.083 17.0799 113.88 17.0799C114.528 17.0799 114.942 17.5813 114.676 18.8206L113.437 24.6904C112.7 28.1417 114.263 28.8795 115.738 28.8795C117.396 28.8795 119.049 27.9204 120.359 26.6899C120.533 28.3188 121.86 28.8795 123.053 28.8795C124.732 28.8795 126.408 27.8966 127.725 26.6434C127.882 28.2626 128.865 28.8795 130.192 28.8795C131.944 28.8795 133.903 27.8109 135.291 26.4791C135.518 27.8491 136.271 28.85 137.979 28.85C139.454 28.85 140.781 27.8765 141.932 26.4311C141.725 27.1388 141.548 27.7879 141.371 28.4366C137.389 29.882 132.787 32.7138 132.787 36.3719C132.787 38.8198 134.321 40 135.973 40C140.958 40 143.2 34.7493 144.557 29.4987C145.588 29.3634 146.633 29.3933 147.654 29.5872C148.038 28.4366 147.507 27.257 146.297 27.257C145.882 27.2603 145.467 27.2998 145.059 27.375C145.177 26.844 145.294 26.313 145.412 25.8115L147.92 14.1305ZM136.003 37.3748C135.659 37.3492 135.34 37.1893 135.113 36.9297C134.887 36.6701 134.772 36.3317 134.793 35.988C134.793 33.9825 137.507 31.7994 140.752 30.5016C139.247 35.3394 138.038 37.3748 136.003 37.3748Z" fill="#231F20"/>
<path d="M191.725 18.8503C193.259 18.8503 194.085 17.4048 194.085 16.0775C194.085 14.8678 193.347 13.7471 191.932 13.7471C190.575 13.7471 189.306 14.573 188.126 16.9624L188.451 15.3693C188.687 14.2482 188.097 13.7471 187.035 13.7471C185.796 13.7471 184.734 14.3663 183.731 15.163C183.615 15.2641 183.522 15.3887 183.459 15.5286C183.395 15.6685 183.362 15.8204 183.362 15.9741C183.362 16.1278 183.395 16.2797 183.459 16.4196C183.522 16.5595 183.615 16.6842 183.731 16.7852C183.997 16.5495 184.173 16.4313 184.321 16.4313C184.586 16.4313 184.704 16.6967 184.616 17.1686L182.965 24.9002C182.215 25.524 181.162 26.0768 180.221 26.0768C179.453 26.0768 178.981 25.5464 179.336 23.8942L181.4 14.1306C180.984 13.8725 180.503 13.7394 180.014 13.7471C179.638 13.7369 179.264 13.8081 178.917 13.9557C178.571 14.1033 178.261 14.324 178.008 14.6026C177.271 13.9534 176.297 13.6291 174.97 13.6291C170.87 13.6291 167.536 18.7617 167.536 23.9237C167.536 24.1778 167.551 24.4548 167.578 24.7413C166.052 25.6101 164.336 26.0891 162.581 26.136C159.601 26.136 158.422 23.245 158.422 19.7646C158.422 13.5995 161.106 7.93592 163.672 7.93592C165.973 7.93592 165.825 10.7677 164.056 11.505C164.205 11.8456 164.448 12.137 164.756 12.3458C165.064 12.5546 165.424 12.6722 165.796 12.6851C167.241 12.6851 168.185 11.2397 168.185 9.67618C168.185 7.87689 166.946 5.93001 164.085 5.93001C158.687 5.93001 154.262 12.7441 154.262 20.2661C154.262 24.8086 156.298 28.8796 160.929 28.8796C163.5 28.9055 165.982 27.9366 167.857 26.1752C168.287 27.5934 169.238 28.8796 171.224 28.8796C172.905 28.8796 174.468 27.6404 175.707 25.9001C175.678 28.2304 177.064 28.8796 178.451 28.8796C179.688 28.8796 181.242 28.0574 182.525 26.9593L182.197 28.4958C182.613 28.7538 183.094 28.887 183.583 28.8796C184.645 28.8796 185.766 28.3781 186.061 27.0208L186.415 25.2215C187.92 18.4077 189.306 17.08 190.279 17.08C190.899 17.08 191.194 17.4048 191.194 17.8177C191.21 18.1533 191.094 18.4819 190.87 18.7321C191.147 18.8147 191.435 18.8546 191.725 18.8503ZM175.766 23.9828C174.97 25.0744 173.731 25.8412 172.787 25.8412C171.873 25.8412 171.194 25.192 171.194 23.717C171.194 20.5018 172.462 15.8413 176.032 15.8413C176.504 15.838 176.974 15.918 177.418 16.0775L175.766 23.9828Z" fill="#231F20"/>
<path d="M228.715 16.0769C228.715 14.8672 227.978 13.7465 226.562 13.7465C225.205 13.7465 223.937 14.5724 222.757 16.9618L223.081 15.3688C223.317 14.2477 222.727 13.7465 221.665 13.7465C220.427 13.7465 219.365 14.3657 218.362 15.1624C218.246 15.2635 218.153 15.3881 218.089 15.5281C218.026 15.668 217.993 15.8199 217.993 15.9735C217.993 16.1272 218.026 16.2791 218.089 16.419C218.153 16.5589 218.246 16.6836 218.362 16.7847C218.627 16.5489 218.804 16.4307 218.952 16.4307C219.217 16.4307 219.335 16.6961 219.246 17.168L217.973 23.1333C216.702 24.812 213.993 26.3125 211.872 26.3125C210.515 26.3125 209.424 25.7224 209.129 24.1299C214.822 20.9732 216.149 18.9673 216.149 16.4603C216.149 15.133 215.471 13.6285 212.787 13.6285C207.948 13.6285 205.415 19.6908 205.386 23.5296C204.017 25.0397 201.581 26.3125 199.63 26.3125C198.273 26.3125 197.182 25.7224 196.887 24.1299C202.58 20.9732 203.907 18.9673 203.907 16.4603C203.907 15.133 203.229 13.6285 200.545 13.6285C195.677 13.6285 193.141 19.7641 193.141 23.5988C193.145 23.875 193.164 24.1507 193.2 24.4247C192.613 24.7074 191.959 24.8197 191.312 24.749C191.105 25.8996 192.167 26.755 193.317 26.4602C193.44 26.4237 193.559 26.3742 193.672 26.3125C194.498 28.0823 196.208 28.879 198.155 28.879C200.635 28.879 203.533 27.5453 205.588 25.2512C206.177 27.718 208.093 28.879 210.397 28.879C212.726 28.879 215.414 27.691 217.435 25.6487L216.828 28.4952C217.243 28.7532 217.725 28.8864 218.214 28.879C219.276 28.879 220.397 28.3776 220.692 27.0202L221.046 25.2209C222.55 18.4072 223.937 17.0795 224.91 17.0795C225.53 17.0795 225.825 17.4042 225.825 17.8172C225.841 18.1528 225.724 18.4813 225.5 18.7315C225.778 18.8142 226.066 18.854 226.355 18.8497C227.89 18.8497 228.715 17.4042 228.715 16.0769ZM200.751 15.9293C201.253 15.9293 201.607 16.4013 201.607 17.0795C201.607 18.9968 199.66 21.0618 196.798 22.8611C196.887 20.7966 197.831 15.9293 200.751 15.9293ZM212.993 15.9293C213.494 15.9293 213.849 16.4013 213.849 17.0795C213.849 18.9968 211.902 21.0618 209.04 22.8611C209.129 20.7966 210.073 15.9293 212.993 15.9293Z" fill="#231F20"/>
<path d="M236.592 18.9087C237.683 18.9673 238.656 18.1414 238.656 16.4898C238.656 14.5724 237.447 13.6285 234.94 13.6285C231.518 13.6285 229.896 15.8112 229.896 18.171C229.896 22.5958 234.763 22.3301 234.763 24.5723C234.763 25.1933 234.519 25.7894 234.083 26.2313C233.646 26.6731 233.053 26.9249 232.432 26.9321C231.488 26.9321 230.574 26.342 230.574 24.9852C230.561 24.3131 230.78 23.657 231.193 23.1268C230.869 22.8399 230.446 22.6917 230.014 22.714C228.568 22.714 227.713 23.7756 227.506 24.9852C227.182 26.9617 228.509 28.879 231.665 28.879C236.002 28.879 237.712 26.755 237.712 23.8936C237.712 20.1474 232.875 20.8261 232.875 17.699C232.875 16.1064 233.789 15.3096 234.586 15.3096C235.293 15.3096 235.913 15.8112 235.913 16.9027C235.919 17.4734 235.743 18.0313 235.412 18.4958C235.761 18.7363 236.169 18.8788 236.592 18.9087Z" fill="#231F20"/>
</svg>
