<svg width="158" height="26" viewBox="0 0 158 26" fill="none" xmlns="http://www.w3.org/2000/svg">
<path d="M10.1036 5.96048C11.7102 5.96048 13.0126 4.6842 13.0126 3.10984C13.0126 1.53547 11.7102 0.259194 10.1036 0.259194C8.49703 0.259194 7.19464 1.53547 7.19464 3.10984C7.19464 4.6842 8.49703 5.96048 10.1036 5.96048Z" fill="white"/>
<path d="M17.1643 10.8276C14.5586 7.85898 13.0126 7.21314 9.47686 7.21314C4.55018 7.21314 0.516641 10.4087 0.0545222 15.2753C-0.408254 20.1488 2.03505 25.8726 8.91363 25.8726C15.6571 25.8726 17.0455 22.5135 17.0455 22.5135C17.0455 22.5135 18.1586 20.558 16.5827 19.8249C14.6985 18.9483 13.9779 20.9431 13.9779 20.9431C12.7582 23.4907 8.93138 23.2926 8.93138 23.2926C8.93138 23.2926 2.39621 23.3454 2.51724 15.9069C2.5439 14.2683 3.01109 13.0391 3.68655 12.1168C5.60748 9.49383 9.02805 9.35686 9.50864 9.34722C10.1037 9.34907 12.3791 9.14456 14.5092 10.6251C16.9794 12.3419 17.4877 14.2343 21.3684 16.4263C22.2578 16.8285 23.2278 17.0302 24.2073 17.0165C25.1867 17.0028 26.1505 16.774 27.0277 16.347C27.0277 16.347 23.713 16.7696 21.0181 14.7361C19.837 13.8449 18.6112 12.4759 17.1643 10.8276Z" fill="white"/>
<path d="M28.483 5.70129C30.0896 5.70129 31.392 4.42501 31.392 2.85065C31.392 1.27628 30.0896 0 28.483 0C26.8764 0 25.574 1.27628 25.574 2.85065C25.574 4.42501 26.8764 5.70129 28.483 5.70129Z" fill="white"/>
<path d="M21.4223 22.2582C24.028 25.2268 25.574 25.8726 29.1098 25.8726C34.0365 25.8726 38.07 22.6771 38.5321 17.8105C38.9949 12.937 36.5516 7.21315 29.673 7.21314C22.9295 7.21313 21.5412 10.5722 21.5412 10.5722C21.5412 10.5722 20.428 12.5278 22.0039 13.2609C23.8882 14.1374 24.6088 12.1427 24.6088 12.1427C25.8285 9.59511 29.6553 9.79318 29.6553 9.79318C29.6553 9.79318 36.1904 9.74036 36.0694 17.1788C36.0428 18.8174 35.5756 20.0467 34.9001 20.969C32.9792 23.5919 29.5586 23.7289 29.078 23.7385C28.483 23.7367 26.2076 23.9412 24.0775 22.4607C21.6073 20.7438 21.0989 18.8514 17.2182 16.6595C16.3289 16.2572 15.3588 16.0555 14.3794 16.0692C13.4 16.0829 12.4362 16.3117 11.5589 16.7387C11.5589 16.7387 14.8737 16.3162 17.5686 18.3497C18.7496 19.2408 19.9755 20.6099 21.4223 22.2582Z" fill="white"/>
<path d="M53.4097 5.17337C53.5035 5.17031 53.5956 5.14831 53.6807 5.1087C53.7657 5.06908 53.8419 5.01268 53.9046 4.94286C53.9672 4.87305 54.0151 4.79127 54.0454 4.70246C54.0756 4.61365 54.0876 4.51963 54.0805 4.42608C54.0843 4.32663 54.0613 4.22799 54.0141 4.14039C53.9669 4.05279 53.8971 3.97942 53.812 3.92788C52.988 4.38773 51.3588 3.54447 49.7683 3.54447C47.5066 3.54447 46.5867 4.92427 46.5867 6.13174C46.5867 7.09004 47.1615 7.95244 48.1391 7.95244C48.4246 7.95108 48.7062 7.88562 48.9631 7.76089C48.7125 7.44486 48.5772 7.05274 48.5798 6.64939C48.5798 5.74858 49.2122 4.77107 50.9565 4.77107H51.0521L47.9665 18.3978C48.2729 18.5798 48.6265 18.6666 48.9823 18.6471C49.6915 18.6471 50.4388 18.3213 50.6307 17.4205L53.2371 5.17337L53.4097 5.17337Z" fill="white"/>
<path d="M83.8065 7.68393C84.1739 7.67274 84.5255 7.53194 84.7991 7.28645C85.0727 7.04096 85.2506 6.7066 85.3014 6.34254C85.3221 6.17116 85.3055 5.99734 85.2528 5.83295C85.2001 5.66857 85.1126 5.51752 84.9961 5.39011C84.8796 5.26271 84.737 5.16197 84.578 5.09478C84.419 5.02759 84.2473 4.99554 84.0748 5.00082C83.7098 5.00722 83.3599 5.14739 83.0914 5.39471C82.8229 5.64203 82.6545 5.9793 82.6182 6.34254C82.5898 6.51197 82.5997 6.68561 82.6471 6.85074C82.6945 7.01587 82.7782 7.16832 82.8921 7.29691C83.006 7.42551 83.1473 7.52701 83.3055 7.59397C83.4637 7.66093 83.6349 7.69167 83.8065 7.68393Z" fill="white"/>
<path d="M98.7366 9.06432C98.4664 8.89662 98.1538 8.81014 97.8358 8.81516C97.1458 8.81516 96.4174 9.14076 96.2259 10.0226L94.98 15.7531C94.5988 16.1693 94.0682 16.4174 93.5043 16.4431C92.8718 16.4431 92.7184 15.983 92.8527 15.3889L94.0409 9.86918C94.1944 9.14077 93.811 8.81517 93.1209 8.81517C92.3161 8.81517 91.6261 9.21746 90.9744 9.73512C90.8991 9.80078 90.8388 9.88178 90.7975 9.97268C90.7562 10.0636 90.7348 10.1623 90.7348 10.2621C90.7348 10.362 90.7562 10.4607 90.7975 10.5516C90.8388 10.6425 90.8991 10.7235 90.9744 10.7891C91.147 10.6359 91.2619 10.5592 91.3578 10.5592C91.5301 10.5592 91.6261 10.7316 91.5493 11.0382L90.6486 14.9674C90.5728 15.3229 90.5216 15.6833 90.4956 16.0459C90.0073 16.4578 89.3135 16.8262 88.6938 16.8262C88.1956 16.8262 87.8887 16.4815 88.1189 15.408L89.2496 10.0226H90.0928C90.6869 10.0226 90.9936 9.52412 90.8979 8.91081H89.4987L90.0355 6.38116C89.7653 6.21346 89.4525 6.12692 89.1345 6.13181C88.4447 6.13181 87.7163 6.4576 87.5248 7.33921L87.1798 8.91081H86.7964C86.2023 8.91081 85.8956 9.40933 85.9915 10.0226H86.9499L85.7233 15.8107C85.7056 15.8951 85.7018 15.9636 85.688 16.0437C85.1994 16.4564 84.5041 16.8262 83.8834 16.8262C83.3852 16.8262 83.0785 16.4815 83.3084 15.408L84.4775 9.86918C84.6309 9.14077 84.2476 8.81517 83.5575 8.81517C82.7527 8.81517 82.0626 9.21747 81.411 9.73513C81.3357 9.80078 81.2754 9.88178 81.2341 9.97268C81.1928 10.0636 81.1714 10.1623 81.1714 10.2621C81.1714 10.362 81.1928 10.4607 81.2341 10.5516C81.2754 10.6425 81.3357 10.7235 81.411 10.7891C81.5836 10.6359 81.6984 10.5592 81.7944 10.5592C81.9667 10.5592 82.0435 10.7316 81.9859 11.0382L80.9432 16.0365C80.4546 16.4522 79.7545 16.8262 79.1304 16.8262C78.747 16.8262 78.4979 16.5963 78.6128 16.0405L79.5518 11.6323C79.9928 9.62006 79.2644 8.81515 78.2485 8.81515C77.137 8.81515 75.9104 9.58166 75.1055 10.7316L75.2971 9.86916C75.4697 9.14075 75.0672 8.81515 74.3772 8.81515C73.5722 8.81515 72.8823 9.21744 72.2306 9.7351C72.1554 9.80076 72.0951 9.88176 72.0537 9.97266C72.0124 10.0636 71.991 10.1623 71.991 10.2621C71.991 10.362 72.0124 10.4607 72.0537 10.5516C72.0951 10.6425 72.1554 10.7235 72.2306 10.7891C72.4032 10.6359 72.518 10.5592 72.6139 10.5592C72.7863 10.5592 72.8823 10.7316 72.8055 11.0382L71.7327 16.062C71.2451 16.4672 70.5613 16.8262 69.95 16.8262C69.4515 16.8262 69.1449 16.4815 69.3751 15.408L70.5249 9.96507C70.6781 9.23665 70.295 8.9108 69.605 8.9108H66.0208L66.1551 8.3359C66.5577 6.47679 67.1326 5.53763 68.1485 5.53763C68.4483 5.54474 68.7454 5.59646 69.03 5.69108C68.9767 6.27833 68.8544 6.85726 68.6658 7.41595C69.0133 7.66247 69.4281 7.79629 69.8541 7.79929C70.6781 7.79929 71.215 7.28189 71.215 6.30438C71.215 5.05864 69.95 4.25347 68.4167 4.25347C66.3086 4.25347 64.5259 5.42285 63.9318 8.22106L63.7786 8.9108H63.3952C62.8011 8.9108 62.4944 9.40931 62.5904 10.0226H63.5487L62.2473 16.0766C61.7607 16.4757 61.0858 16.8262 60.4819 16.8262C60.0985 16.8262 59.8494 16.5963 59.9642 16.0405L60.9034 11.6323C61.3443 9.62006 60.6159 8.81515 59.6 8.81515C58.4885 8.81515 57.2619 9.58166 56.4571 10.7316L56.6486 9.86916C56.8213 9.14075 56.4187 8.81515 55.7287 8.81515C54.9238 8.81515 54.2337 9.21744 53.5821 9.7351C53.5069 9.80076 53.4466 9.88176 53.4052 9.97266C53.3639 10.0636 53.3425 10.1623 53.3425 10.2621C53.3425 10.362 53.3639 10.4607 53.4052 10.5516C53.4466 10.6425 53.5069 10.7235 53.5821 10.7891C53.7548 10.6359 53.8695 10.5592 53.9654 10.5592C54.1379 10.5592 54.2337 10.7316 54.1571 11.0382L52.5854 18.3978C52.8556 18.5655 53.1683 18.6521 53.4862 18.6472C54.1762 18.6472 54.9046 18.3214 55.0962 17.4395L56.2652 11.9773C56.687 11.46 57.4537 10.9807 57.9711 10.9807C58.3926 10.9807 58.6612 11.3064 58.4885 12.1116L57.6837 15.9254C57.2044 18.1679 58.2202 18.6472 59.1786 18.6472C60.1627 18.6472 61.1451 18.1278 61.9566 17.4287L61.7277 18.4937C60.8844 22.4035 60.3287 24.1669 59.0254 24.1669C58.712 24.1936 58.4003 24.0992 58.1543 23.9031C57.9084 23.707 57.7469 23.4242 57.7031 23.1127C57.3197 23.1127 57.0706 23.3043 57.0706 23.6301C57.0706 25.2401 58.029 25.8726 59.1788 25.8726C61.8619 25.8726 62.8587 23.6685 63.9702 18.4938L65.7909 10.0226H67.7651C68.0717 10.0226 68.2441 10.1758 68.1676 10.5016L66.941 16.3664C66.5768 18.1103 67.6883 18.6472 68.6467 18.6472C69.639 18.6472 70.6292 18.1185 71.4447 17.4106L71.2339 18.3979C71.5041 18.5655 71.8167 18.6521 72.1346 18.6472C72.8247 18.6472 73.5531 18.3214 73.7447 17.4395L74.9137 11.9773C75.3355 11.46 76.1022 10.9807 76.6196 10.9807C77.041 10.9807 77.3096 11.3065 77.137 12.1116L76.3322 15.9254C75.8529 18.1679 76.8687 18.6472 77.827 18.6472C78.9043 18.6472 79.9785 18.0241 80.8294 17.2246C80.9423 18.2829 81.8045 18.6472 82.58 18.6472C83.671 18.6472 84.7596 18.0086 85.6155 17.1944C85.7176 18.2464 86.3563 18.6472 87.2181 18.6472C88.3567 18.6472 89.6293 17.9529 90.5313 17.0876C90.6785 17.9778 91.1679 18.6281 92.2777 18.6281C93.236 18.6281 94.0984 17.9956 94.846 17.0564C94.7117 17.5163 94.5966 17.938 94.4818 18.3595C91.8943 19.2986 88.9046 21.1385 88.9046 23.5153C88.9046 25.1058 89.9013 25.8726 90.9744 25.8726C94.2135 25.8726 95.6701 22.461 96.5516 19.0495C97.2212 18.9617 97.9005 18.9811 98.5639 19.1071C98.8133 18.3595 98.4683 17.593 97.6823 17.593C97.4123 17.5952 97.143 17.6208 96.8775 17.6697C96.9543 17.3247 97.0307 16.9797 97.1074 16.6539L98.7366 9.06432ZM90.9936 24.1669C90.7704 24.1503 90.5628 24.0464 90.4157 23.8777C90.2687 23.709 90.194 23.4892 90.2079 23.2659C90.2079 21.9628 91.9711 20.5444 94.0793 19.7011C93.1018 22.8444 92.3161 24.1669 90.9936 24.1669Z" fill="white"/>
<path d="M127.198 12.1307C128.195 12.1307 128.731 11.1916 128.731 10.3292C128.731 9.54322 128.252 8.81507 127.332 8.81507C126.451 8.81507 125.627 9.35168 124.86 10.9041L125.071 9.86908C125.224 9.14067 124.841 8.81507 124.151 8.81507C123.346 8.81507 122.656 9.21737 122.004 9.73503C121.929 9.80068 121.869 9.88168 121.827 9.97258C121.786 10.0635 121.765 10.1622 121.765 10.262C121.765 10.3619 121.786 10.4606 121.827 10.5515C121.869 10.6424 121.929 10.7234 122.004 10.789C122.177 10.6358 122.292 10.5591 122.388 10.5591C122.56 10.5591 122.637 10.7315 122.579 11.0381L121.506 16.0616C121.019 16.4669 120.335 16.8261 119.723 16.8261C119.225 16.8261 118.918 16.4814 119.148 15.4079L120.49 9.06423C120.22 8.89654 119.907 8.81005 119.589 8.81507C119.345 8.80844 119.102 8.85467 118.877 8.95059C118.652 9.04652 118.45 9.18989 118.286 9.37089C117.807 8.94913 117.174 8.73837 116.312 8.73837C113.648 8.73837 111.482 12.0732 111.482 15.4271C111.482 15.5923 111.491 15.7722 111.509 15.9584C110.518 16.5228 109.402 16.8341 108.262 16.8645C106.326 16.8645 105.56 14.9862 105.56 12.7248C105.56 8.71916 107.304 5.03934 108.971 5.03934C110.466 5.03934 110.37 6.87925 109.22 7.3583C109.318 7.57959 109.475 7.76896 109.675 7.9046C109.875 8.04025 110.11 8.11666 110.351 8.12506C111.29 8.12506 111.904 7.1859 111.904 6.17005C111.904 5.001 111.099 3.73604 109.24 3.73604C105.732 3.73604 102.857 8.16341 102.857 13.0507C102.857 16.0021 104.18 18.6471 107.189 18.6471C108.86 18.664 110.472 18.0344 111.69 16.89C111.97 17.8115 112.588 18.6471 113.878 18.6471C114.97 18.6471 115.986 17.842 116.791 16.7113C116.772 18.2253 117.672 18.6471 118.574 18.6471C119.377 18.6471 120.387 18.1129 121.221 17.3994L121.008 18.3978C121.278 18.5654 121.59 18.6519 121.908 18.6471C122.598 18.6471 123.327 18.3213 123.518 17.4394L123.748 16.2703C124.726 11.8432 125.627 10.9806 126.259 10.9806C126.662 10.9806 126.853 11.1916 126.853 11.4599C126.864 11.6779 126.788 11.8914 126.642 12.054C126.823 12.1077 127.01 12.1335 127.198 12.1307ZM116.829 15.4655C116.312 16.1748 115.507 16.673 114.894 16.673C114.3 16.673 113.859 16.2512 113.859 15.2928C113.859 13.2038 114.683 10.1757 117.002 10.1757C117.309 10.1736 117.614 10.2256 117.903 10.3292L116.829 15.4655Z" fill="white"/>
<path d="M151.232 10.3289C151.232 9.54295 150.753 8.81479 149.833 8.81479C148.951 8.81479 148.127 9.3514 147.361 10.9039L147.571 9.8688C147.725 9.1404 147.341 8.81479 146.651 8.81479C145.847 8.81479 145.157 9.21709 144.505 9.73475C144.43 9.8004 144.369 9.8814 144.328 9.9723C144.287 10.0632 144.265 10.1619 144.265 10.2618C144.265 10.3616 144.287 10.4603 144.328 10.5512C144.369 10.6421 144.43 10.7231 144.505 10.7888C144.678 10.6356 144.792 10.5588 144.888 10.5588C145.061 10.5588 145.137 10.7312 145.08 11.0379L144.252 14.9137C143.427 16.0044 141.666 16.9793 140.288 16.9793C139.407 16.9793 138.698 16.5959 138.506 15.5612C142.205 13.5102 143.068 12.2069 143.068 10.578C143.068 9.71561 142.627 8.7381 140.883 8.7381C137.739 8.7381 136.093 12.677 136.074 15.1712C135.185 16.1523 133.602 16.9793 132.334 16.9793C131.453 16.9793 130.744 16.5959 130.552 15.5612C134.251 13.5102 135.114 12.2069 135.114 10.578C135.114 9.71561 134.673 8.7381 132.929 8.7381C129.766 8.7381 128.118 12.7246 128.118 15.2161C128.121 15.3956 128.133 15.5747 128.156 15.7527C127.775 15.9364 127.35 16.0094 126.93 15.9634C126.796 16.711 127.486 17.2668 128.233 17.0752C128.313 17.0515 128.39 17.0194 128.463 16.9793C129 18.1292 130.111 18.6468 131.376 18.6468C132.988 18.6468 134.87 17.7803 136.205 16.2897C136.588 17.8925 137.833 18.6468 139.33 18.6468C140.843 18.6468 142.59 17.875 143.903 16.548L143.508 18.3975C143.778 18.5651 144.091 18.6517 144.409 18.6468C145.099 18.6468 145.827 18.321 146.019 17.4391L146.249 16.2701C147.226 11.843 148.127 10.9803 148.76 10.9803C149.162 10.9803 149.354 11.1913 149.354 11.4596C149.364 11.6777 149.289 11.8911 149.143 12.0537C149.323 12.1074 149.511 12.1333 149.699 12.1305C150.695 12.1305 151.232 11.1913 151.232 10.3289ZM133.063 10.233C133.389 10.233 133.619 10.5397 133.619 10.9803C133.619 12.2261 132.354 13.5678 130.495 14.7368C130.552 13.3954 131.165 10.233 133.063 10.233ZM141.017 10.233C141.342 10.233 141.573 10.5397 141.573 10.9803C141.573 12.2261 140.308 13.5678 138.449 14.7368C138.506 13.3954 139.119 10.233 141.017 10.233Z" fill="white"/>
<path d="M156.35 12.1688C157.058 12.2069 157.691 11.6703 157.691 10.5972C157.691 9.3514 156.905 8.7381 155.276 8.7381C153.053 8.7381 151.999 10.1563 151.999 11.6895C151.999 14.5645 155.161 14.3918 155.161 15.8486C155.162 16.2521 155.003 16.6395 154.719 16.9265C154.436 17.2136 154.05 17.3772 153.647 17.3819C153.034 17.3819 152.44 16.9985 152.44 16.1169C152.431 15.6802 152.574 15.254 152.842 14.9095C152.632 14.7231 152.356 14.6267 152.076 14.6412C151.136 14.6412 150.58 15.331 150.446 16.1169C150.236 17.4011 151.098 18.6468 153.149 18.6468C155.966 18.6468 157.078 17.2668 157.078 15.4077C157.078 12.9737 153.935 13.4146 153.935 11.3829C153.935 10.3481 154.529 9.83039 155.046 9.83039C155.506 9.83039 155.909 10.1563 155.909 10.8655C155.912 11.2363 155.798 11.5987 155.583 11.9005C155.81 12.0568 156.075 12.1494 156.35 12.1688Z" fill="white"/>
</svg>
