<svg width="123" height="90" viewBox="0 0 123 90" fill="none" xmlns="http://www.w3.org/2000/svg">
<path d="M46.9371 9.44564C49.483 9.44564 51.5469 7.42314 51.5469 4.92826C51.5469 2.43338 49.483 0.410889 46.9371 0.410889C44.3912 0.410889 42.3273 2.43338 42.3273 4.92826C42.3273 7.42314 44.3912 9.44564 46.9371 9.44564Z" fill="white"/>
<path d="M58.1261 17.1582C53.9968 12.4539 51.5469 11.4304 45.9439 11.4304C38.1366 11.4304 31.7447 16.4943 31.0124 24.2064C30.2791 31.9294 34.1509 40.9998 45.0513 40.9998C55.7377 40.9999 57.9378 35.6767 57.9378 35.6767C57.9378 35.6767 59.7017 32.5778 57.2044 31.416C54.2185 30.027 53.0766 33.1881 53.0766 33.1881C51.1437 37.2252 45.0795 36.9113 45.0795 36.9113C45.0795 36.9113 34.7233 36.995 34.9151 25.2074C34.9573 22.6107 35.6976 20.6627 36.768 19.2011C39.8121 15.0446 45.2326 14.8275 45.9942 14.8123C46.9371 14.8152 50.543 14.4911 53.9185 16.8372C57.833 19.5579 58.6386 22.5568 64.7882 26.0303C66.1976 26.6678 67.7348 26.9874 69.2869 26.9657C70.839 26.944 72.3663 26.5814 73.7565 25.9048C73.7565 25.9048 68.5036 26.5744 64.2331 23.352C62.3615 21.9397 60.4189 19.7702 58.1261 17.1582Z" fill="white"/>
<path d="M76.0628 9.03475C78.6087 9.03475 80.6726 7.01226 80.6726 4.51738C80.6726 2.0225 78.6087 0 76.0628 0C73.5169 0 71.453 2.0225 71.453 4.51738C71.453 7.01226 73.5169 9.03475 76.0628 9.03475Z" fill="white"/>
<path d="M64.8737 35.2721C69.003 39.9764 71.4529 40.9998 77.0559 40.9998C84.8632 40.9998 91.2551 35.9359 91.9874 28.2239C92.7208 20.5009 88.8489 11.4304 77.9485 11.4304C67.2622 11.4304 65.062 16.7535 65.062 16.7535C65.062 16.7535 63.2981 19.8524 65.7954 21.0142C68.7813 22.4033 69.9232 19.2422 69.9232 19.2422C71.8561 15.2051 77.9204 15.519 77.9204 15.519C77.9204 15.519 88.2766 15.4353 88.0848 27.2229C88.0425 29.8196 87.3022 31.7676 86.2318 33.2291C83.1877 37.3857 77.7672 37.6027 77.0056 37.618C76.0627 37.6151 72.4569 37.9391 69.0813 35.593C65.1668 32.8723 64.3612 29.8735 58.2116 26.3999C56.8023 25.7625 55.265 25.4428 53.7129 25.4646C52.1609 25.4863 50.6335 25.8488 49.2433 26.5255C49.2433 26.5255 54.4962 25.8559 58.7668 29.0783C60.6384 30.4906 62.5809 32.66 64.8737 35.2721Z" fill="white"/>
<path d="M7.55356 66.8033C7.65737 66.7999 7.75942 66.7756 7.85357 66.7317C7.94773 66.6879 8.03203 66.6254 8.10142 66.5481C8.1708 66.4708 8.22383 66.3803 8.25732 66.282C8.2908 66.1837 8.30404 66.0796 8.29624 65.976C8.30038 65.8659 8.27499 65.7567 8.22272 65.6597C8.17044 65.5628 8.09317 65.4815 7.99893 65.4245C7.08672 65.9335 5.28306 65 3.52227 65C1.01845 65 0 66.5275 0 67.8643C0 68.9252 0.636442 69.8799 1.71862 69.8799C2.03475 69.8784 2.34651 69.806 2.6309 69.6679C2.35344 69.318 2.20372 68.8839 2.20651 68.4374C2.20651 67.4401 2.90667 66.3579 4.83769 66.3579H4.94357L1.52754 81.4436C1.86676 81.6451 2.25821 81.7412 2.65216 81.7197C3.4373 81.7197 4.2646 81.359 4.47701 80.3617L7.36249 66.8033L7.55356 66.8033Z" fill="white"/>
<path d="M41.2047 69.5833C41.6115 69.5709 42.0007 69.4151 42.3036 69.1433C42.6065 68.8715 42.8035 68.5013 42.8597 68.0983C42.8826 67.9086 42.8643 67.7161 42.8059 67.5342C42.7476 67.3522 42.6506 67.1849 42.5217 67.0439C42.3927 66.9029 42.2348 66.7913 42.0588 66.7169C41.8828 66.6426 41.6928 66.6071 41.5018 66.6129C41.0977 66.62 40.7103 66.7752 40.413 67.049C40.1158 67.3228 39.9294 67.6962 39.8892 68.0983C39.8578 68.2859 39.8687 68.4781 39.9212 68.6609C39.9737 68.8437 40.0663 69.0125 40.1925 69.1549C40.3186 69.2972 40.4749 69.4096 40.6501 69.4837C40.8252 69.5579 41.0147 69.5919 41.2047 69.5833Z" fill="white"/>
<path d="M57.7336 71.1111C57.4345 70.9254 57.0883 70.8297 56.7363 70.8353C55.9725 70.8353 55.1661 71.1957 54.954 72.172L53.5748 78.516C53.1528 78.9768 52.5653 79.2515 51.9411 79.2799C51.2409 79.2799 51.071 78.7705 51.2197 78.1128L52.5351 72.0021C52.705 71.1957 52.2806 70.8353 51.5166 70.8353C50.6256 70.8353 49.8617 71.2806 49.1403 71.8537C49.057 71.9264 48.9902 72.0161 48.9445 72.1167C48.8987 72.2173 48.8751 72.3266 48.8751 72.4371C48.8751 72.5477 48.8987 72.6569 48.9445 72.7576C48.9902 72.8582 49.057 72.9479 49.1403 73.0206C49.3314 72.851 49.4585 72.766 49.5647 72.766C49.7555 72.766 49.8618 72.9569 49.7768 73.2963L48.7796 77.6462C48.6957 78.0398 48.6391 78.4388 48.6102 78.8402C48.0696 79.2961 47.3016 79.704 46.6155 79.704C46.064 79.704 45.7242 79.3224 45.9791 78.134L47.2308 72.172H48.1643C48.822 72.172 49.1615 71.6201 49.0556 70.9411H47.5066L48.1009 68.1406C47.8017 67.955 47.4554 67.8592 47.1034 67.8646C46.3398 67.8646 45.5334 68.2253 45.3213 69.2013L44.9394 70.9411H44.5149C43.8572 70.9411 43.5177 71.493 43.6239 72.172H44.6849L43.327 78.5798C43.3074 78.6732 43.3031 78.7491 43.2878 78.8377C42.7469 79.2947 41.9772 79.704 41.2901 79.704C40.7385 79.704 40.399 79.3224 40.6535 78.134L41.9478 72.0021C42.1176 71.1957 41.6932 70.8353 40.9293 70.8353C40.0383 70.8353 39.2743 71.2806 38.5529 71.8537C38.4696 71.9264 38.4029 72.0161 38.3571 72.1167C38.3114 72.2173 38.2877 72.3266 38.2877 72.4371C38.2877 72.5477 38.3114 72.657 38.3571 72.7576C38.4029 72.8582 38.4696 72.9479 38.5529 73.0206C38.7441 72.851 38.8711 72.766 38.9774 72.766C39.1682 72.766 39.2532 72.9569 39.1894 73.2963L38.0351 78.8298C37.4941 79.29 36.7191 79.704 36.0282 79.704C35.6037 79.704 35.328 79.4495 35.4551 78.8343L36.4947 73.954C36.9829 71.7263 36.1765 70.8352 35.0519 70.8352C33.8214 70.8352 32.4634 71.6838 31.5723 72.9568L31.7845 72.0021C31.9755 71.1957 31.5299 70.8352 30.766 70.8352C29.8749 70.8352 29.1111 71.2806 28.3896 71.8537C28.3063 71.9264 28.2396 72.016 28.1938 72.1167C28.1481 72.2173 28.1244 72.3266 28.1244 72.4371C28.1244 72.5477 28.1481 72.6569 28.1938 72.7576C28.2396 72.8582 28.3063 72.9479 28.3896 73.0206C28.5807 72.851 28.7079 72.766 28.814 72.766C29.0049 72.766 29.1111 72.9568 29.0261 73.2963L27.8384 78.858C27.2987 79.3065 26.5416 79.704 25.8648 79.704C25.313 79.704 24.9735 79.3224 25.2284 78.134L26.5013 72.1083C26.6709 71.3019 26.2468 70.9411 25.4829 70.9411H21.515L21.6636 70.3047C22.1093 68.2465 22.7458 67.2068 23.8705 67.2068C24.2024 67.2147 24.5313 67.2719 24.8464 67.3767C24.7873 68.0268 24.652 68.6677 24.4432 69.2862C24.8278 69.5591 25.287 69.7073 25.7587 69.7106C26.6709 69.7106 27.2653 69.1378 27.2653 68.0557C27.2653 66.6765 25.8648 65.7852 24.1674 65.7852C21.8336 65.7852 19.86 67.0797 19.2023 70.1775L19.0327 70.9411H18.6082C17.9505 70.9411 17.611 71.493 17.7172 72.172H18.7782L17.3375 78.8741C16.7987 79.316 16.0516 79.704 15.383 79.704C14.9586 79.704 14.6828 79.4495 14.8099 78.8342L15.8496 73.954C16.3377 71.7263 15.5313 70.8352 14.4067 70.8352C13.1762 70.8352 11.8183 71.6838 10.9273 72.9568L11.1393 72.0021C11.3305 71.1957 10.8848 70.8352 10.1209 70.8352C9.22985 70.8352 8.46589 71.2806 7.74447 71.8537C7.66118 71.9264 7.59442 72.016 7.54868 72.1167C7.50293 72.2173 7.47926 72.3266 7.47926 72.4371C7.47926 72.5477 7.50293 72.6569 7.54868 72.7576C7.59442 72.8582 7.66118 72.9479 7.74447 73.0206C7.93562 72.851 8.0627 72.766 8.16887 72.766C8.35973 72.766 8.4659 72.9568 8.38099 73.2963L6.64105 81.4439C6.94018 81.6295 7.28632 81.7254 7.63831 81.72C8.40218 81.72 9.20858 81.3593 9.42064 80.383L10.7149 74.336C11.1818 73.7632 12.0306 73.2326 12.6034 73.2326C13.0701 73.2326 13.3674 73.5933 13.1762 74.4847L12.2852 78.7068C11.7546 81.1894 12.8792 81.72 13.9402 81.72C15.0296 81.72 16.1173 81.145 17.0157 80.3711L16.7622 81.5501C15.8287 85.8784 15.2134 87.8307 13.7706 87.8307C13.4236 87.8602 13.0785 87.7557 12.8063 87.5387C12.534 87.3216 12.3552 87.0085 12.3068 86.6636C11.8823 86.6636 11.6065 86.8757 11.6065 87.2364C11.6065 89.0188 12.6675 89.719 13.9405 89.719C16.9108 89.719 18.0143 87.2789 19.2448 81.5501L21.2604 72.172H23.446C23.7855 72.172 23.9763 72.3416 23.8916 72.7023L22.5337 79.195C22.1305 81.1257 23.361 81.72 24.422 81.72C25.5206 81.72 26.6168 81.1347 27.5196 80.3509L27.2862 81.444C27.5853 81.6296 27.9314 81.7254 28.2834 81.72C29.0473 81.72 29.8537 81.3593 30.0658 80.383L31.36 74.336C31.8269 73.7633 32.6758 73.2326 33.2486 73.2326C33.7151 73.2326 34.0125 73.5933 33.8214 74.4847L32.9304 78.7068C32.3997 81.1894 33.5244 81.72 34.5853 81.72C35.7778 81.72 36.967 81.0302 37.9091 80.1451C38.034 81.3167 38.9885 81.72 39.8471 81.72C41.0549 81.72 42.2601 81.013 43.2076 80.1116C43.3207 81.2763 44.0278 81.72 44.9818 81.72C46.2423 81.72 47.6511 80.9514 48.6498 79.9935C48.8127 80.9789 49.3545 81.6988 50.5832 81.6988C51.6441 81.6988 52.5988 80.9986 53.4265 79.9589C53.2778 80.468 53.1503 80.9349 53.0233 81.4015C50.1587 82.4412 46.8488 84.4781 46.8488 87.1093C46.8488 88.8701 47.9523 89.719 49.1402 89.719C52.7262 89.719 54.3387 85.9422 55.3147 82.1654C56.0559 82.0681 56.808 82.0896 57.5424 82.2291C57.8185 81.4015 57.4366 80.553 56.5664 80.553C56.2675 80.5553 55.9694 80.5837 55.6754 80.6379C55.7604 80.2559 55.845 79.874 55.9299 79.5132L57.7336 71.1111ZM49.1615 87.8307C48.9145 87.8123 48.6846 87.6972 48.5218 87.5105C48.359 87.3238 48.2763 87.0804 48.2918 86.8332C48.2918 85.3906 50.2437 83.8203 52.5776 82.8868C51.4955 86.3666 50.6256 87.8307 49.1615 87.8307Z" fill="white"/>
<path d="M89.2422 74.5047C90.3457 74.5047 90.9397 73.465 90.9397 72.5102C90.9397 71.6401 90.4094 70.834 89.3909 70.834C88.4149 70.834 87.5024 71.4281 86.6538 73.1468L86.8871 72.0009C87.057 71.1945 86.6325 70.834 85.8687 70.834C84.9777 70.834 84.2137 71.2794 83.4923 71.8525C83.409 71.9252 83.3422 72.0148 83.2965 72.1155C83.2507 72.2161 83.2271 72.3254 83.2271 72.4359C83.2271 72.5464 83.2507 72.6557 83.2965 72.7563C83.3422 72.857 83.409 72.9467 83.4923 73.0193C83.6834 72.8497 83.8105 72.7647 83.9167 72.7647C84.1075 72.7647 84.1924 72.9556 84.1287 73.2951L82.9412 78.8564C82.4015 79.3051 81.6444 79.7028 80.9672 79.7028C80.4153 79.7028 80.0758 79.3212 80.3307 78.1328L81.8158 71.1099C81.5167 70.9242 81.1705 70.8285 80.8185 70.834C80.5479 70.8267 80.2789 70.8778 80.0299 70.984C79.7808 71.0902 79.5577 71.249 79.3757 71.4493C78.8453 70.9824 78.1451 70.7491 77.1904 70.7491C74.2412 70.7491 71.8436 74.441 71.8436 78.154C71.8436 78.3368 71.8539 78.536 71.8732 78.7421C70.7758 79.367 69.5412 79.7116 68.2789 79.7453C66.1358 79.7453 65.2872 77.6659 65.2872 75.1624C65.2872 70.7278 67.218 66.654 69.0637 66.654C70.719 66.654 70.6128 68.6909 69.3398 69.2213C69.4473 69.4663 69.6219 69.6759 69.8433 69.8261C70.0648 69.9762 70.3241 70.0608 70.5915 70.0701C71.6312 70.0701 72.3102 69.0304 72.3102 67.9058C72.3102 66.6116 71.4192 65.2112 69.361 65.2112C65.478 65.2112 62.2952 70.1126 62.2952 75.5231C62.2952 78.7905 63.7594 81.7188 67.0905 81.7188C68.9403 81.7374 70.7258 81.0405 72.0738 79.7735C72.3833 80.7936 73.0678 81.7188 74.4957 81.7188C75.7051 81.7188 76.8297 80.8274 77.7207 79.5757C77.6994 81.2518 78.6967 81.7188 79.6942 81.7188C80.584 81.7188 81.7016 81.1274 82.6249 80.3375L82.3889 81.4427C82.688 81.6283 83.0341 81.7241 83.386 81.7188C84.15 81.7188 84.9564 81.3581 85.1684 80.3817L85.423 79.0875C86.5051 74.1864 87.5024 73.2314 88.2025 73.2314C88.6483 73.2314 88.8603 73.465 88.8603 73.762C88.8721 74.0034 88.7883 74.2397 88.627 74.4197C88.8266 74.4791 89.034 74.5078 89.2422 74.5047ZM77.7631 78.1965C77.1904 78.9817 76.2994 79.5332 75.6204 79.5332C74.9627 79.5332 74.4745 79.0663 74.4745 78.0053C74.4745 75.6927 75.3868 72.3404 77.9543 72.3404C78.2941 72.338 78.6317 72.3955 78.9516 72.5102L77.7631 78.1965Z" fill="white"/>
<path d="M115.85 72.5099C115.85 71.6398 115.319 70.8337 114.301 70.8337C113.325 70.8337 112.412 71.4277 111.564 73.1464L111.797 72.0005C111.967 71.1941 111.542 70.8337 110.779 70.8337C109.888 70.8337 109.124 71.2791 108.402 71.8521C108.319 71.9248 108.252 72.0145 108.206 72.1151C108.161 72.2158 108.137 72.325 108.137 72.4356C108.137 72.5461 108.161 72.6554 108.206 72.756C108.252 72.8566 108.319 72.9463 108.402 73.019C108.593 72.8494 108.72 72.7644 108.827 72.7644C109.017 72.7644 109.102 72.9553 109.039 73.2948L108.122 77.5856C107.209 78.7931 105.26 79.8724 103.734 79.8724C102.758 79.8724 101.973 79.4479 101.761 78.3024C105.856 76.0318 106.811 74.589 106.811 72.7857C106.811 71.8309 106.323 70.7488 104.392 70.7488C100.911 70.7488 99.0896 75.1094 99.0685 77.8706C98.0839 78.9568 96.332 79.8724 94.9286 79.8724C93.9527 79.8724 93.1675 79.4479 92.9554 78.3024C97.0505 76.0318 98.0053 74.589 98.0053 72.7857C98.0053 71.8309 97.5171 70.7488 95.5864 70.7488C92.0853 70.7488 90.2608 75.1621 90.2608 77.9204C90.2637 78.1191 90.2778 78.3174 90.3033 78.5145C89.8814 78.7178 89.4109 78.7986 88.9453 78.7477C88.7967 79.5754 89.5606 80.1906 90.3879 79.9786C90.4764 79.9523 90.5618 79.9167 90.6428 79.8724C91.2368 81.1453 92.4673 81.7184 93.8677 81.7184C95.6516 81.7184 97.7361 80.7591 99.2139 79.1089C99.6377 80.8833 101.016 81.7184 102.673 81.7184C104.348 81.7184 106.282 80.8639 107.736 79.3949L107.299 81.4424C107.598 81.628 107.944 81.7238 108.296 81.7184C109.06 81.7184 109.866 81.3578 110.078 80.3814L110.333 79.0872C111.415 74.1861 112.412 73.231 113.112 73.231C113.558 73.231 113.77 73.4646 113.77 73.7617C113.782 74.0031 113.698 74.2394 113.537 74.4194C113.736 74.4788 113.944 74.5075 114.152 74.5044C115.256 74.5044 115.85 73.4647 115.85 72.5099ZM95.735 72.4037C96.0958 72.4037 96.3503 72.7432 96.3503 73.2311C96.3503 74.6102 94.9499 76.0955 92.8917 77.3898C92.9554 75.9048 93.6344 72.4037 95.735 72.4037ZM104.541 72.4037C104.901 72.4037 105.156 72.7432 105.156 73.2311C105.156 74.6102 103.756 76.0955 101.697 77.3898C101.761 75.9048 102.44 72.4037 104.541 72.4037Z" fill="white"/>
<path d="M121.515 74.5468C122.3 74.589 123 73.9949 123 72.8069C123 71.4277 122.13 70.7488 120.326 70.7488C117.865 70.7488 116.698 72.3188 116.698 74.0162C116.698 77.199 120.199 77.0078 120.199 78.6206C120.2 79.0673 120.024 79.4961 119.71 79.8139C119.396 80.1317 118.969 80.3129 118.523 80.318C117.844 80.318 117.186 79.8936 117.186 78.9176C117.177 78.4342 117.334 77.9623 117.632 77.5809C117.399 77.3745 117.094 77.2679 116.783 77.284C115.743 77.284 115.128 78.0475 114.98 78.9176C114.746 80.3393 115.701 81.7184 117.971 81.7184C121.09 81.7184 122.321 80.1906 122.321 78.1324C122.321 75.4378 118.841 75.926 118.841 73.6767C118.841 72.5311 119.499 71.958 120.072 71.958C120.581 71.958 121.027 72.3188 121.027 73.1039C121.031 73.5144 120.904 73.9157 120.666 74.2498C120.917 74.4228 121.21 74.5253 121.515 74.5468Z" fill="white"/>
</svg>
